<?xml version="1.0" encoding="iso-8859-1"?>
<!-- Generator: Adobe Illustrator 18.0.0, SVG Export Plug-In . SVG Version: 6.00 Build 0)  -->
<!DOCTYPE svg PUBLIC "-//W3C//DTD SVG 1.1//EN" "http://www.w3.org/Graphics/SVG/1.1/DTD/svg11.dtd">
<svg version="1.1" id="Capa_1" xmlns="http://www.w3.org/2000/svg" xmlns:xlink="http://www.w3.org/1999/xlink" x="0px" y="0px"
	 viewBox="0 0 32 32" style="enable-background:new 0 0 32 32;" xml:space="preserve">
<g id="tick">
	<g>
		<path style="fill-rule:evenodd;clip-rule:evenodd;" d="M22.834,10.285L13.5,19.619l-4.333-4.334c-0.381-0.381-1-0.381-1.381,0
			c-0.381,0.381-0.381,1,0,1.381l4.905,4.905c0.033,0.047,0.053,0.101,0.095,0.143c0.197,0.197,0.456,0.288,0.714,0.281
			c0.258,0.006,0.518-0.084,0.715-0.281c0.042-0.042,0.062-0.096,0.095-0.143l9.905-9.905c0.381-0.381,0.381-1,0-1.381
			C23.833,9.904,23.215,9.904,22.834,10.285z M16,0C7.163,0,0,7.163,0,16c0,8.837,7.163,16,16,16c8.836,0,16-7.163,16-16
			C32,7.163,24.837,0,16,0z M16,30C8.268,30,2,23.732,2,16C2,8.268,8.268,2,16,2c7.732,0,14,6.268,14,14C30,23.732,23.732,30,16,30z
			"/>
	</g>
</g>
<g>
</g>
<g>
</g>
<g>
</g>
<g>
</g>
<g>
</g>
<g>
</g>
<g>
</g>
<g>
</g>
<g>
</g>
<g>
</g>
<g>
</g>
<g>
</g>
<g>
</g>
<g>
</g>
<g>
</g>
</svg>
